<?xml version="1.0" encoding="utf-8"?>
<!-- Generator: Adobe Illustrator 17.0.0, SVG Export Plug-In . SVG Version: 6.00 Build 0)  -->
<!DOCTYPE svg PUBLIC "-//W3C//DTD SVG 1.1//EN" "http://www.w3.org/Graphics/SVG/1.1/DTD/svg11.dtd">
<svg version="1.1" id="Layer_1" xmlns="http://www.w3.org/2000/svg" xmlns:xlink="http://www.w3.org/1999/xlink" x="0px" y="0px"
	 width="1024px" height="768px" viewBox="1560 0 1024 768" enable-background="new 1560 0 1024 768" xml:space="preserve">
<g>
	<g>
		<circle fill="#FFFFFF" cx="889.115" cy="214.593" r="42.085"/>
	</g>
	<g>
		<path fill="#FFFFFF" d="M941.436,164.476c12.474,13.023,20.16,30.661,20.16,50.117c0,24.637-12.307,46.384-31.094,59.482
			c34.723-10.703,63.434-36.794,76.295-68.396c17.783-43.712,1.229-76.618-26.565-106.448c0.842,3.86,1.321,7.859,1.321,11.978
			C981.554,136.498,964.597,157.829,941.436,164.476z"/>
	</g>
	<g>
		<circle fill="#FFFFFF" cx="926.112" cy="111.197" r="32.196"/>
	</g>
	<g>
		<path fill="#FFFFFF" d="M833.661,261.265c-10.634-12.613-17.044-28.89-17.044-46.678c0-37.106,27.892-67.675,63.838-71.95
			c-6.162-8.938-9.791-19.768-9.791-31.44c0-30.621,24.828-55.437,55.448-55.437c2.527,0,5.008,0.179,7.443,0.513
			C915.42,40.62,897.32,24.747,883.034,7.391c7.299,76.001-69.227,48.386-97.511,118.426
			C766.54,172.813,783.654,230.916,833.661,261.265z"/>
	</g>
</g>
<g>
	<g>
		<g>
			<path fill="#FFFFFF" d="M320.006,657.253c0,15.756-6.831,28.509-22.737,28.509c-15.92,0-22.796-12.753-22.796-28.509v-53.86
				h-29.038v53.86c0,31.137,20.214,56.365,51.67,56.365c31.425,0,51.944-25.224,51.944-56.365v-53.924h-29.107L320.006,657.253z"/>
		</g>
		<g>
			<rect x="611.451" y="570.486" fill="#FFFFFF" width="28.947" height="140.354"/>
		</g>
		<g>
			<polygon fill="#FFFFFF" points="661.775,575.665 670.034,575.665 670.034,597.895 676.098,597.895 676.098,575.665 
				684.347,575.665 684.347,570.623 661.775,570.623 			"/>
		</g>
		<g>
			<polygon fill="#FFFFFF" points="708.64,570.623 702.549,589.381 702.471,589.381 696.033,570.623 687.514,570.623 
				687.514,597.895 693.177,597.895 693.177,578.758 693.25,578.758 699.989,597.895 704.675,597.895 711.424,578.553 
				711.487,578.553 711.487,597.895 717.164,597.895 717.164,570.623 			"/>
		</g>
		<g>
			<path fill="#FFFFFF" d="M180.414,622.338c-0.315,0.643-0.324,1.008-1.437,0.999c-0.908-0.037-1.018-0.999-1.018-0.999
				l-3.094-18.785h-25.94v107.205h29.07v-58.031c0-4.75,12.899-27.473,37.886-21.646c12.625,2.975,17.982,8.286,17.982,8.286
				s0-20.702,0-32.652c-4.677-2.418-7.885-3.591-12.096-4.554C196.822,596.458,181.076,621.006,180.414,622.338z"/>
		</g>
		<g>
			<path fill="#FFFFFF" d="M416.666,601.303c-31.644,0-57.301,25.406-57.301,56.753c0,0,0,77.583,0,88.004h29.148v-38.575
				l0.018-14.451c0,0,0.041-1.145,1.095-1.173c0.935,0,1.141,0.621,1.378,1.173c2.199,5.439,14.337,26.141,41.244,19.648
				c24.083-6.726,41.737-28.618,41.737-54.627C473.981,626.71,448.328,601.303,416.666,601.303z M416.698,686.78
				c-16.034,0-29.002-12.849-29.002-28.723c0-15.856,12.968-28.732,29.002-28.732c16.025,0,29.011,12.876,29.011,28.732
				C445.714,673.931,432.728,686.78,416.698,686.78z"/>
		</g>
		<g>
			<path fill="#FFFFFF" d="M542.378,601.303c-31.657,0-57.319,25.406-57.319,56.753c0,26.004,17.663,47.901,41.759,54.627
				c26.907,6.498,39.035-14.204,41.226-19.648c0.242-0.552,0.447-1.173,1.387-1.173c1.054,0.027,1.091,1.173,1.091,1.173
				l0.023,17.759h29.152v-52.738C599.692,626.71,574.04,601.303,542.378,601.303z M542.364,686.78
				c-16.029,0-29.02-12.849-29.02-28.723c0-15.856,12.995-28.732,29.02-28.732c16.011,0,29.002,12.876,29.002,28.732
				C571.366,673.931,558.375,686.78,542.364,686.78z"/>
		</g>
		<g>
			<path fill="#FFFFFF" d="M60.26,570.417H24.774v140.158H57.85c43.443,0,77.975-8.405,77.975-70.077
				C135.821,578.234,103.229,570.417,60.26,570.417z M66.055,686.561l-12.005-0.306v-91.531h11.695
				c26.789,0,40.788,3.714,40.788,45.77C106.532,684.339,90.685,686.561,66.055,686.561z"/>
		</g>
	</g>
	<text transform="matrix(1 0 0 1 18.5629 551.8802)" fill="#FFFFFF" font-family="'SourceSansPro-ExtraLight'" font-size="90.9081">NOVETATS</text>
</g>
<g>
	<g>
		<g>
			<path fill="#FFFFFF" d="M2063.294,606.526c0,12.587-5.454,22.773-18.162,22.773c-12.714,0-18.207-10.187-18.207-22.773v-43.022
				h-23.192v43.022c0,24.872,16.144,45.021,41.272,45.021c25.1,0,41.493-20.149,41.493-45.021v-43.069h-23.249L2063.294,606.526z"/>
		</g>
		<g>
			<rect x="2296.088" y="537.22" fill="#FFFFFF" width="23.121" height="112.11"/>
		</g>
		<g>
			<polygon fill="#FFFFFF" points="2336.287,541.354 2342.888,541.354 2342.888,559.112 2347.729,559.112 2347.729,541.354 
				2354.32,541.354 2354.32,537.33 2336.287,537.33 			"/>
		</g>
		<g>
			<polygon fill="#FFFFFF" points="2373.727,537.33 2368.859,552.311 2368.795,552.311 2363.652,537.33 2356.85,537.33 
				2356.85,559.112 2361.37,559.112 2361.37,543.829 2361.434,543.829 2366.814,559.112 2370.556,559.112 2375.945,543.665 
				2376,543.665 2376,559.112 2380.529,559.112 2380.529,537.33 			"/>
		</g>
		<g>
			<path fill="#FFFFFF" d="M1951.794,578.64c-0.251,0.512-0.26,0.806-1.15,0.797c-0.725-0.027-0.812-0.797-0.812-0.797l-2.47-15.008
				h-20.718v85.634h23.22v-46.351c0-3.796,10.305-21.947,30.263-17.291c10.084,2.375,14.365,6.62,14.365,6.62s0-16.539,0-26.082
				c-3.736-1.935-6.298-2.869-9.663-3.64C1964.899,557.966,1952.322,577.575,1951.794,578.64z"/>
		</g>
		<g>
			<path fill="#FFFFFF" d="M2140.502,561.835c-25.274,0-45.768,20.297-45.768,45.334c0,0,0,61.971,0,70.296h23.28v-30.812
				l0.014-11.543c0,0,0.032-0.916,0.876-0.935c0.747,0,0.912,0.495,1.1,0.935c1.76,4.347,11.451,20.884,32.943,15.694
				c19.237-5.371,33.338-22.863,33.338-43.636C2186.285,582.132,2165.795,561.835,2140.502,561.835z M2140.53,630.115
				c-12.808,0-23.166-10.268-23.166-22.946c0-12.661,10.358-22.947,23.166-22.947c12.802,0,23.175,10.286,23.175,22.947
				C2163.705,619.848,2153.332,630.115,2140.53,630.115z"/>
		</g>
		<g>
			<path fill="#FFFFFF" d="M2240.919,561.835c-25.288,0-45.788,20.297-45.788,45.334c0,20.772,14.109,38.265,33.356,43.636
				c21.497,5.189,31.179-11.348,32.93-15.694c0.192-0.439,0.358-0.935,1.109-0.935c0.844,0.019,0.87,0.935,0.87,0.935l0.02,14.183
				h23.285V607.17C2286.701,582.132,2266.212,561.835,2240.919,561.835z M2240.908,630.115c-12.806,0-23.184-10.268-23.184-22.946
				c0-12.661,10.378-22.947,23.184-22.947c12.789,0,23.168,10.286,23.168,22.947
				C2264.076,619.848,2253.697,630.115,2240.908,630.115z"/>
		</g>
		<g>
			<path fill="#FFFFFF" d="M1855.816,537.166h-28.346v111.953h26.421c34.703,0,62.284-6.711,62.284-55.978
				C1916.175,543.408,1890.139,537.166,1855.816,537.166z M1860.446,629.94l-9.589-0.248v-73.11h9.341
				c21.397,0,32.582,2.971,32.582,36.56C1892.78,628.162,1880.119,629.94,1860.446,629.94z"/>
		</g>
	</g>
	<g>
		<g>
			<path fill="#FFFFFF" d="M2058.298,317.378c-29.125,0-52.731,23.606-52.731,52.724c0,29.117,23.606,52.728,52.731,52.728
				c29.111,0,52.717-23.61,52.717-52.728C2111.016,340.984,2087.409,317.378,2058.298,317.378z"/>
		</g>
		<g>
			<path fill="#FFFFFF" d="M2123.858,307.319c15.622,16.314,25.238,38.416,25.238,62.782c0,30.857-15.41,58.104-38.935,74.509
				c43.482-13.416,79.46-46.099,95.566-85.688c22.27-54.76,1.535-95.981-33.278-133.35c1.06,4.838,1.655,9.853,1.655,15.007
				C2174.105,272.272,2152.855,298.988,2123.858,307.319z"/>
		</g>
		<g>
			<path fill="#FFFFFF" d="M2064.316,240.58c0,22.275,18.064,40.331,40.337,40.331c22.273,0,40.327-18.057,40.327-40.331
				c0-22.27-18.055-40.325-40.327-40.325C2082.381,200.255,2064.316,218.31,2064.316,240.58z"/>
		</g>
		<g>
			<path fill="#FFFFFF" d="M1988.84,428.572c-13.32-15.801-21.346-36.19-21.346-58.471c0-46.479,34.933-84.773,79.968-90.129
				c-7.728-11.198-12.266-24.765-12.266-39.392c0-38.352,31.091-69.448,69.458-69.448c3.167,0,6.279,0.234,9.327,0.645
				c-22.721-19.609-45.392-39.496-63.287-61.24c9.14,95.217-86.72,60.619-122.156,148.361
				C1904.757,317.768,1926.19,390.542,1988.84,428.572z"/>
		</g>
	</g>
</g>
</svg>
